HIERARCHY
ROOT ZeroOut_JNT
{
  OFFSET 0 0 0
  CHANNELS 6 Xposition Yposition Zposition Zrotation Xrotation Yrotation
  JOINT SpineFinal_1_JNT
  {
    OFFSET 0 59.8141 -42.9993
    CHANNELS 6 Xposition Yposition Zposition Zrotation Xrotation Yrotation
    JOINT l_legIKClavicle_Root_JNT
    {
      OFFSET -0.323145 -1.55994 9.59625
      CHANNELS 6 Xposition Yposition Zposition Zrotation Xrotation Yrotation
      JOINT l_legBlendRoot_JNT
      {
        OFFSET 16.1374 0 0
        CHANNELS 6 Xposition Yposition Zposition Zrotation Xrotation Yrotation
        JOINT l_legBlendMiddle_JNT
        {
          OFFSET 27.0969 0 0
          CHANNELS 6 Xposition Yposition Zposition Zrotation Xrotation Yrotation
          JOINT l_legBlendEnd_JNT
          {
            OFFSET 24.8414 0 0
            CHANNELS 6 Xposition Yposition Zposition Zrotation Xrotation Yrotation
            JOINT l_legBlendTip_JNT
            {
              OFFSET 6.77858 0 0
              CHANNELS 6 Xposition Yposition Zposition Zrotation Xrotation Yrotation
              End Site
              {
                OFFSET 0 0 0
              }
            }
          }
        }
      }
    }
    JOINT SpineFinal_2_JNT
    {
      OFFSET -19.5366 0.0587492 -0.00256357
      CHANNELS 6 Xposition Yposition Zposition Zrotation Xrotation Yrotation
      JOINT SpineFinal_3_JNT
      {
        OFFSET -19.4679 1.47333 -0.00136182
        CHANNELS 6 Xposition Yposition Zposition Zrotation Xrotation Yrotation
        JOINT SpineFinal_4_JNT
        {
          OFFSET -18.2335 5.20609 0
          CHANNELS 6 Xposition Yposition Zposition Zrotation Xrotation Yrotation
          JOINT SpineFinal_5_JNT
          {
            OFFSET -17.3574 8.01768 -1.82773e-005
            CHANNELS 6 Xposition Yposition Zposition Zrotation Xrotation Yrotation
            JOINT SpineFinal_6_JNT
            {
              OFFSET -19.144 8.35871 0
              CHANNELS 6 Xposition Yposition Zposition Zrotation Xrotation Yrotation
              JOINT SpineFinal_7_JNT
              {
                OFFSET -16.3943 7.24542 0
                CHANNELS 6 Xposition Yposition Zposition Zrotation Xrotation Yrotation
                JOINT SpineFinal_8_JNT
                {
                  OFFSET -19.3877 2.40349 0
                  CHANNELS 6 Xposition Yposition Zposition Zrotation Xrotation Yrotation
                  JOINT head_JNT
                  {
                    OFFSET -13.796 -11.6756 0
                    CHANNELS 6 Xposition Yposition Zposition Zrotation Xrotation Yrotation
                    JOINT l_hornRoot_JNT
                    {
                      OFFSET -15.825 14.8229 15.3879
                      CHANNELS 6 Xposition Yposition Zposition Zrotation Xrotation Yrotation
                      JOINT l_hornMid_JNT
                      {
                        OFFSET 6.55118 0 0
                        CHANNELS 6 Xposition Yposition Zposition Zrotation Xrotation Yrotation
                        JOINT l_hornEnd_JNT
                        {
                          OFFSET 6.73503 0 0
                          CHANNELS 6 Xposition Yposition Zposition Zrotation Xrotation Yrotation
                          End Site
                          {
                            OFFSET 0 0 0
                          }
                        }
                      }
                    }
                    JOINT headJend_JNT
                    {
                      OFFSET 1.34858 -27.5886 0
                      CHANNELS 6 Xposition Yposition Zposition Zrotation Xrotation Yrotation
                      End Site
                      {
                        OFFSET 0 0 0
                      }
                    }
                    JOINT r_hornRoot_JNT
                    {
                      OFFSET -15.825 14.8229 -15.3879
                      CHANNELS 6 Xposition Yposition Zposition Zrotation Xrotation Yrotation
                      JOINT r_hornMid_JNT
                      {
                        OFFSET -2.40814 5.46468 -2.69372
                        CHANNELS 6 Xposition Yposition Zposition Zrotation Xrotation Yrotation
                        JOINT r_hornEnd_JNT
                        {
                          OFFSET -2.40922 6.0083 -1.85921
                          CHANNELS 6 Xposition Yposition Zposition Zrotation Xrotation Yrotation
                          End Site
                          {
                            OFFSET 0 0 0
                          }
                        }
                      }
                    }
                    JOINT m_upLip_JNT
                    {
                      OFFSET 4.72477 -9.87974 0
                      CHANNELS 6 Xposition Yposition Zposition Zrotation Xrotation Yrotation
                      JOINT l_lipUpRoot_JNT
                      {
                        OFFSET 2.68891 -0.690234 4.02874
                        CHANNELS 6 Xposition Yposition Zposition Zrotation Xrotation Yrotation
                        JOINT l_lipUpEnd_JNT
                        {
                          OFFSET 0 0 -14.9226
                          CHANNELS 6 Xposition Yposition Zposition Zrotation Xrotation Yrotation
                          End Site
                          {
                            OFFSET 0 0 0
                          }
                        }
                      }
                      JOINT m_upLipRoot_JNT
                      {
                        OFFSET 0 0 3.94939
                        CHANNELS 6 Xposition Yposition Zposition Zrotation Xrotation Yrotation
                        JOINT m_upLipEnd_JNT
                        {
                          OFFSET 0 0 15.0019
                          CHANNELS 6 Xposition Yposition Zposition Zrotation Xrotation Yrotation
                          End Site
                          {
                            OFFSET 0 0 0
                          }
                        }
                      }
                      JOINT r_lipUpRoot_JNT
                      {
                        OFFSET -2.689 -0.690236 4.02875
                        CHANNELS 6 Xposition Yposition Zposition Zrotation Xrotation Yrotation
                        JOINT r_lipUpEnd_JNT
                        {
                          OFFSET 9.35075e-005 -0.000392738 14.9226
                          CHANNELS 6 Xposition Yposition Zposition Zrotation Xrotation Yrotation
                          End Site
                          {
                            OFFSET 0 0 0
                          }
                        }
                      }
                    }
                    JOINT m_DnLip_JNT
                    {
                      OFFSET 6.0207 -9.81639 0
                      CHANNELS 6 Xposition Yposition Zposition Zrotation Xrotation Yrotation
                      JOINT l_lipDn_JNT
                      {
                        OFFSET 2.71301 -0.162748 3.99146
                        CHANNELS 6 Xposition Yposition Zposition Zrotation Xrotation Yrotation
                        JOINT l_lipEnd_JNT
                        {
                          OFFSET 0 0 -14.9599
                          CHANNELS 6 Xposition Yposition Zposition Zrotation Xrotation Yrotation
                          End Site
                          {
                            OFFSET 0 0 0
                          }
                        }
                      }
                      JOINT m_dnLip_JNT
                      {
                        OFFSET 0 -0.0431035 3.99141
                        CHANNELS 6 Xposition Yposition Zposition Zrotation Xrotation Yrotation
                        JOINT m_dnLipEnd_JNT
                        {
                          OFFSET 0 0 14.9599
                          CHANNELS 6 Xposition Yposition Zposition Zrotation Xrotation Yrotation
                          End Site
                          {
                            OFFSET 0 0 0
                          }
                        }
                      }
                      JOINT r_lipDn_JNT
                      {
                        OFFSET -2.71301 -0.162761 3.99141
                        CHANNELS 6 Xposition Yposition Zposition Zrotation Xrotation Yrotation
                        JOINT r_lipDnEnd_JNT
                        {
                          OFFSET 0 0 14.9599
                          CHANNELS 6 Xposition Yposition Zposition Zrotation Xrotation Yrotation
                          End Site
                          {
                            OFFSET 0 0 0
                          }
                        }
                      }
                    }
                    JOINT l_lid_JNT
                    {
                      OFFSET -7.85698 -6.72885 9.63956
                      CHANNELS 6 Xposition Yposition Zposition Zrotation Xrotation Yrotation
                      End Site
                      {
                        OFFSET 0 0 0
                      }
                    }
                    JOINT r_lid_JNT
                    {
                      OFFSET -7.85684 -6.72882 -9.63956
                      CHANNELS 6 Xposition Yposition Zposition Zrotation Xrotation Yrotation
                      End Site
                      {
                        OFFSET 0 0 0
                      }
                    }
                  }
                }
              }
            }
            JOINT l_FwClavicleRoot_JNT
            {
              OFFSET -0.15532 -4.55898 6.72563
              CHANNELS 6 Xposition Yposition Zposition Zrotation Xrotation Yrotation
              JOINT l_FwLegBlendRoot_JNT
              {
                OFFSET 21.051 0 0
                CHANNELS 6 Xposition Yposition Zposition Zrotation Xrotation Yrotation
                JOINT l_FwLegBlendMiddle_JNT
                {
                  OFFSET 33.1145 0 0
                  CHANNELS 6 Xposition Yposition Zposition Zrotation Xrotation Yrotation
                  JOINT l_FwLegBlendTip_JNT
                  {
                    OFFSET 29.9221 0 0
                    CHANNELS 6 Xposition Yposition Zposition Zrotation Xrotation Yrotation
                    JOINT l_FwLegBlendEnd_JNT
                    {
                      OFFSET 9.62649 0 0
                      CHANNELS 6 Xposition Yposition Zposition Zrotation Xrotation Yrotation
                      End Site
                      {
                        OFFSET 0 0 0
                      }
                    }
                  }
                }
              }
            }
            JOINT r_FwClavicleRoot_JNT
            {
              OFFSET -0.15532 -4.55898 -6.72563
              CHANNELS 6 Xposition Yposition Zposition Zrotation Xrotation Yrotation
              JOINT r_FwLegBlendRoot_JNT
              {
                OFFSET 1.1653 -12.7157 -16.7361
                CHANNELS 6 Xposition Yposition Zposition Zrotation Xrotation Yrotation
                JOINT r_FwLegBlendMiddle_JNT
                {
                  OFFSET 16.2308 -5.97551 28.2387
                  CHANNELS 6 Xposition Yposition Zposition Zrotation Xrotation Yrotation
                  JOINT r_FwLegBlendTip_JNT
                  {
                    OFFSET 26.7017 -9.19239 -9.89204
                    CHANNELS 6 Xposition Yposition Zposition Zrotation Xrotation Yrotation
                    JOINT r_FwLegBlendEnd_JNT
                    {
                      OFFSET 4.44874 -7.74942 3.58114
                      CHANNELS 6 Xposition Yposition Zposition Zrotation Xrotation Yrotation
                      End Site
                      {
                        OFFSET 0 0 0
                      }
                    }
                  }
                }
              }
            }
          }
        }
      }
    }
    JOINT r_legIKClavicle_Root_JNT
    {
      OFFSET -0.323145 -1.55994 -9.59625
      CHANNELS 6 Xposition Yposition Zposition Zrotation Xrotation Yrotation
      JOINT r_legBlendRoot_JNT
      {
        OFFSET 13.2848 -5.74129 -7.13912
        CHANNELS 6 Xposition Yposition Zposition Zrotation Xrotation Yrotation
        JOINT r_legBlendMiddle_JNT
        {
          OFFSET 14.815 16.9375 15.0957
          CHANNELS 6 Xposition Yposition Zposition Zrotation Xrotation Yrotation
          JOINT r_legBlendEnd_JNT
          {
            OFFSET 23.6904 -6.58016 -3.54465
            CHANNELS 6 Xposition Yposition Zposition Zrotation Xrotation Yrotation
            JOINT r_legBlendTip_JNT
            {
              OFFSET 1.47758 -6.16068 -2.41079
              CHANNELS 6 Xposition Yposition Zposition Zrotation Xrotation Yrotation
              End Site
              {
                OFFSET 0 0 0
              }
            }
          }
        }
      }
    }
    JOINT tailRoot_JNT
    {
      OFFSET 2.82533 14.5514 0
      CHANNELS 6 Xposition Yposition Zposition Zrotation Xrotation Yrotation
      JOINT tailMid_JNT
      {
        OFFSET 7.87756 0 0
        CHANNELS 6 Xposition Yposition Zposition Zrotation Xrotation Yrotation
        JOINT tailEnd_JNT
        {
          OFFSET 6.52588 0 0
          CHANNELS 6 Xposition Yposition Zposition Zrotation Xrotation Yrotation
          End Site
          {
            OFFSET 0 0 0
          }
        }
      }
    }
    JOINT l_shoulderBkRoot_JNT
    {
      OFFSET -9.30511 7.998 11.2048
      CHANNELS 6 Xposition Yposition Zposition Zrotation Xrotation Yrotation
      JOINT l_shoulderBkMid_JNT
      {
        OFFSET 0 0 0
        CHANNELS 6 Xposition Yposition Zposition Zrotation Xrotation Yrotation
        End Site
        {
          OFFSET 0 0 0
        }
      }
    }
    JOINT r_shoulderBkRoot_JNT
    {
      OFFSET -9.30514 7.99801 -11.2048
      CHANNELS 6 Xposition Yposition Zposition Zrotation Xrotation Yrotation
      JOINT r_shoulderBkMid_JNT
      {
        OFFSET 0 0 0
        CHANNELS 6 Xposition Yposition Zposition Zrotation Xrotation Yrotation
        End Site
        {
          OFFSET 0 0 0
        }
      }
    }
  }
}
MOTION
Frames:	3
Frame Time:	0.0416667
0 0 0 0 0 -0 6.71357e-014 65.2118 -42.9818 3.16803 -0.315561 89.9792 -0.323145 -1.55994 9.59625 -26.4062 61.2999 -67.9538 16.1374 -7.22566e-007 1.72872e-006 -31.1856 9.37079 39.4906 27.0969 1.06581e-014 -2.84217e-014 4.79102e-015 2.33572e-015 -67.752 24.8414 1.06581e-014 2.84217e-014 0.670087 1.02332 -22.3286 6.77858 -1.06581e-014 -1.06581e-014 -2.10471e-038 -1.89576e-022 -6.36111e-015 -19.3378 -2.89543 -0.155813 11.233 2.88069 -0.602597 -18.8224 0.758962 0.00219602 6.94456 0.385727 -0.0564509 -16.4246 1.8755 3.88706e-007 -4.22867 0.000846424 -0.000222032 -17.2368 7.11947 -6.96077e-005 -0.217919 -0.00105781 0.000227614 -19.144 8.35871 -2.07889e-014 -14.5369 -1.79496e-015 -1.10776e-014 -16.3943 7.24542 2.6118e-014 -12.7946 3.8299e-015 -1.36649e-014 -19.3877 2.40349 -3.46667e-014 4.64591 6.76906e-015 -1.43688e-014 -13.796 -11.6756 2.83107e-014 3.06326 2.41686e-017 8.15328e-018 -15.825 14.8229 15.3879 94.4336 5.86166 -23.7359 6.55118 1.84741e-013 2.13163e-014 -49.6327 -6.50592 -4.44074 6.73503 0 -4.79616e-014 -3.18055e-015 1.19271e-015 -2.78299e-015 1.34858 -27.5886 -1.34059e-014 92.7985 1.31784e-014 -1.65686e-014 -15.825 14.8229 -15.3879 -17.1587 3.45231 -7.04388 -2.40814 5.46468 -2.69372 -80.4713 13.297 -23.5822 -2.40922 6.0083 -1.85921 1.32417e-031 3.18055e-015 -2.38542e-015 4.72477 -9.87974 -3.88578e-016 92.7985 3.50417e-015 -90 2.68891 -0.690234 4.02874 180 7.01671e-015 180 4.44089e-016 1.42109e-014 -14.9226 -7.76503e-019 7.95139e-016 -4.09848e-017 0 -1.42109e-014 3.94939 -3.88251e-019 7.95139e-016 1.63308e-017 -2.77556e-017 0 15.0019 -7.76503e-019 7.95139e-016 4.13245e-017 -2.689 -0.690236 4.02875 -3.88251e-019 7.95139e-016 1.63308e-017 9.35075e-005 -0.000392738 14.9226 -7.76503e-019 7.95139e-016 4.13245e-017 6.0207 -9.81639 -3.60822e-016 92.7985 3.50417e-015 -90 2.71301 -0.162748 3.99146 180 7.01671e-015 180 4.44089e-016 1.42109e-014 -14.9599 -7.76503e-019 7.95139e-016 -4.09848e-017 2.77556e-017 -0.0431035 3.99141 -3.88251e-019 7.95139e-016 1.63308e-017 -5.55112e-017 1.42109e-014 14.9599 -7.76503e-019 7.95139e-016 4.13245e-017 -2.71301 -0.162761 3.99141 -3.88251e-019 7.95139e-016 1.63308e-017 -4.44089e-016 0 14.9599 -7.76503e-019 7.95139e-016 4.13245e-017 -7.85698 -6.72885 9.63956 34.106 19.9417 85.9622 -7.85684 -6.72882 -9.63956 -145.894 19.9417 85.9622 2.4184 -5.6273 6.72563 24.6361 26.2605 -112.654 21.051 6.90113e-008 9.47651e-008 131.628 -69.267 -167.347 33.1145 8.3753e-007 -2.8019e-007 85.0315 7.01671e-015 -180 29.9221 -3.55271e-014 7.10543e-015 -13.4926 -2.10102e-015 4.40588e-015 9.62649 2.13163e-014 7.10543e-015 29.859 -1.7467e-015 90 0.0875847 -4.92629 -6.72563 -59.8219 9.37258 -17.9831 1.1653 -12.7157 -16.7361 65.0814 -65.0399 143.032 16.2308 -5.97551 28.2387 149.197 15.8611 124.38 26.7017 -9.19239 -9.89204 27.599 43.5688 33.099 4.44874 -7.74942 3.58114 29.859 -1.7467e-015 90 -0.323145 -1.55994 -9.59625 -62.7106 -9.24999 4.74057 13.2848 -5.74129 -7.13912 -19.4067 10.2101 48.3592 14.815 16.9375 15.0957 3.0346 -3.08767 -53.9657 23.6904 -6.58016 -3.54465 -4.53739 -0.213358 -51.0337 1.47758 -6.16068 -2.41079 3.97569e-016 0 -9.93923e-017 2.82533 14.5514 -4.44089e-016 24.8136 -1.71452e-015 -4.93234e-015 7.87756 7.10543e-015 -2.22045e-015 31.9976 -1.53748e-015 1.59804e-015 6.52588 1.42109e-014 4.44089e-016 2.39314 -6.33626e-016 2.73329e-016 -9.30511 7.998 11.2048 -6.8505 -4.18474e-016 -90 0 0 0 -5.35787e-017 0 6.52262e-017 -9.30514 7.99801 -11.2048 173.149 4.18474e-016 -90 0 0 0 9.43062e-016 -1.59028e-015 3.10601e-018 
0 0 0 0 0 -0 6.92582e-014 64.8499 -42.9786 3.35066 -1.32116 90.0369 -0.323145 -1.55994 9.59625 -26.4062 61.2999 -67.9538 16.1374 -7.38277e-007 1.73074e-006 -31.3877 9.29296 29.7021 27.0969 7.10543e-015 -1.42109e-014 4.92266e-015 2.18663e-015 -55.4161 24.8414 3.55271e-015 1.42109e-014 0.709538 1.04788 -23.8351 6.77858 -7.10543e-015 -1.06581e-014 1.51661e-021 7.58303e-022 -6.36111e-015 -19.2908 -2.99208 -0.166618 11.858 2.96347 -0.65859 -18.833 0.484326 0.000222477 8.25961 0.407404 -0.0692022 -16.6103 1.56599 1.92395e-006 -2.72516 0.00095766 -0.000244582 -17.1331 7.37233 -8.39704e-005 6.57334 -0.00115562 0.000396443 -19.144 8.35871 -2.07889e-014 -13.5919 -1.94611e-015 -1.10539e-014 -16.3943 7.24542 2.60902e-014 -11.4011 3.49647e-015 -1.37519e-014 -19.3877 2.40349 -3.46528e-014 5.32748 6.61345e-015 -1.44593e-014 -13.796 -11.6756 2.83246e-014 -12.9143 -6.11496e-018 -5.04727e-018 -15.825 14.8229 15.3879 95.3329 5.46732 -23.8247 6.55118 1.98952e-013 0 -52.3936 -6.28538 -4.74834 6.73503 1.42109e-014 -4.88498e-014 3.18055e-015 7.95139e-016 -2.38542e-015 1.34858 -27.5886 -1.33782e-014 92.7985 1.31753e-014 -1.6538e-014 -15.825 14.8229 -15.3879 -13.4097 2.51239 -5.58316 -2.40814 5.46468 -2.69372 -82.9317 14.4127 -23.7838 -2.40922 6.0083 -1.85921 -3.18055e-015 7.95139e-015 -3.18055e-015 4.72477 -9.87974 -3.46945e-016 92.7985 3.50417e-015 -90 2.68891 -0.690234 4.02874 180 7.01671e-015 -180 -4.44089e-016 -1.42109e-014 -14.9226 -3.88251e-019 0 1.70345e-017 0 1.42109e-014 3.94939 -2.71776e-018 0 -1.63066e-017 0 0 15.0019 -4.02085e-034 -7.95139e-016 -2.89733e-017 -2.689 -0.690236 4.02875 -2.71776e-018 0 -1.63066e-017 9.35075e-005 -0.000392738 14.9226 -4.02085e-034 -7.95139e-016 -2.89733e-017 6.0207 -9.81639 -3.33067e-016 92.7985 3.50417e-015 -90 2.71301 -0.162748 3.99146 180 7.01671e-015 -180 -4.44089e-016 -1.42109e-014 -14.9599 -3.88251e-019 0 1.70345e-017 -2.77556e-017 -0.0431035 3.99141 -2.71776e-018 0 -1.63066e-017 0 -1.42109e-014 14.9599 -4.02085e-034 -7.95139e-016 -2.89733e-017 -2.71301 -0.162761 3.99141 -2.71776e-018 0 -1.63066e-017 -4.44089e-016 -1.42109e-014 14.9599 -4.02085e-034 -7.95139e-016 -2.89733e-017 -7.85698 -6.72885 9.63956 34.106 19.9417 85.9622 -7.85684 -6.72882 -9.63956 -145.894 19.9417 85.9622 2.83803 -6.13684 6.72563 17.1377 26.2605 -112.654 21.051 1.55016e-007 1.7882e-007 148.179 -66.9637 -151.971 33.1145 8.3753e-007 -2.8019e-007 83.7942 7.01671e-015 -180 29.9221 -7.10543e-015 0 -18.6846 -2.47297e-015 4.17991e-015 9.62649 2.4869e-014 1.06581e-014 29.859 -1.7467e-015 90 -0.100923 -5.07787 -6.72563 -68.378 9.37258 -17.9831 1.1653 -12.7157 -16.7361 64.2452 -65.5117 143.868 16.2308 -5.97551 28.2387 150.322 16.5458 120.35 26.7017 -9.19239 -9.89204 24.7178 46.4639 37.1702 4.44874 -7.74942 3.58114 29.859 -1.7467e-015 90 -0.323145 -1.55994 -9.59625 -62.7106 -9.24999 4.74057 13.2848 -5.74129 -7.13912 -18.6516 10.2267 48.4518 14.815 16.9375 15.0957 3.85791 -3.92191 -53.9154 23.6904 -6.58016 -3.54465 -5.4356 -0.32247 -51.0998 1.47758 -6.16068 -2.41079 -3.97569e-016 7.95139e-016 -7.85199e-015 2.82533 14.5514 -4.08562e-014 26.6156 -3.00972e-015 -3.98191e-015 7.87756 0 -1.06581e-014 33.1681 -1.14301e-015 7.51655e-016 6.52588 7.10543e-015 -1.33227e-014 2.59257 -2.48481e-016 5.34234e-016 -9.30511 7.998 11.2048 -6.8505 -4.18474e-016 -90 0 0 0 2.25186e-017 -3.18055e-015 1.86361e-017 -9.30514 7.99801 -11.2048 173.149 4.18474e-016 -90 0 0 0 -1.00945e-017 3.18055e-015 7.45443e-017 
0 0 0 0 0 -0 6.89979e-014 64.4632 -42.9758 3.45848 -2.32847 90.0989 -0.323145 -1.55994 9.59625 -26.4062 61.2999 -67.9538 16.1374 -7.49694e-007 1.73155e-006 -31.531 9.23693 30.3914 27.0969 1.06581e-014 -2.84217e-014 4.86796e-015 2.08724e-015 -56.5226 24.8414 1.42109e-014 3.55271e-014 0.716392 1.10597 -22.3847 6.77858 -7.10543e-015 -1.06581e-014 6.06643e-021 -1.51661e-021 -0 -19.2591 -3.06845 -0.170608 12.3131 2.94815 -0.682943 -18.8529 0.236056 -0.00162106 10.5798 0.418201 -0.0885787 -16.8542 1.29836 3.55878e-006 -1.60543 0.00107087 -0.000267734 -17.0024 7.68395 -0.00010079 9.58152 -0.00126291 0.000508787 -19.144 8.35871 -2.07837e-014 -11.9745 -2.25812e-015 -1.09904e-014 -16.3943 7.24542 2.60764e-014 -10.071 3.15662e-015 -1.38358e-014 -19.3877 2.40349 -3.46632e-014 5.9444 6.43197e-015 -1.45296e-014 -13.796 -11.6756 2.83194e-014 -27.9828 3.2516e-018 3.88251e-019 -15.825 14.8229 15.3879 99.1828 3.7597 -24.1345 6.55118 1.84741e-013 1.77636e-015 -52.7878 -6.25269 -4.79139 6.73503 4.26326e-014 -4.9738e-014 -3.18055e-015 0 1.59028e-015 1.34858 -27.5886 -1.33938e-014 92.7985 1.31723e-014 -1.65287e-014 -15.825 14.8229 -15.3879 -6.28774 1.00963 -2.67814 -2.40814 5.46468 -2.69372 -83.2839 14.5728 -23.8087 -2.40922 6.0083 -1.85921 -3.08973e-031 -3.18055e-015 -5.56597e-015 4.72477 -9.87974 -3.67761e-016 92.7985 3.50417e-015 -90 2.68891 -0.690234 4.02874 180 7.01671e-015 -180 0 0 -14.9226 -6.19628e-035 -1.59028e-015 -2.23244e-018 0 -2.84217e-014 3.94939 -9.70628e-020 -3.18055e-015 -2.49937e-018 1.73472e-018 1.42109e-014 15.0019 -4.85314e-019 -1.59028e-015 2.25671e-018 -2.689 -0.690236 4.02875 -9.70628e-020 -3.18055e-015 -2.49937e-018 9.35075e-005 -0.000392738 14.9226 -4.85314e-019 -1.59028e-015 2.25671e-018 6.0207 -9.81639 -3.67761e-016 92.7985 3.50417e-015 -90 2.71301 -0.162748 3.99146 180 7.01671e-015 -180 -4.44089e-016 0 -14.9599 -6.19628e-035 -1.59028e-015 -2.23244e-018 -8.67362e-018 -0.0431035 3.99141 -9.70628e-020 -3.18055e-015 -2.49937e-018 1.73472e-018 -1.42109e-014 14.9599 -4.85314e-019 -1.59028e-015 2.25671e-018 -2.71301 -0.162761 3.99141 -9.70628e-020 -3.18055e-015 -2.49937e-018 4.44089e-016 -1.42109e-014 14.9599 -4.85314e-019 -1.59028e-015 2.25671e-018 -7.85698 -6.72885 9.63956 34.106 19.9417 85.9622 -7.85684 -6.72882 -9.63956 -145.894 19.9417 85.9622 3.31212 -6.55044 6.72563 15.4995 26.2605 -112.654 21.051 2.44306e-007 2.42836e-007 162.405 -62.7939 -139.07 33.1145 8.3753e-007 -2.8019e-007 82.5326 7.01671e-015 -180 29.9221 -3.19744e-014 1.42109e-014 -22.8346 -2.76003e-015 4.01248e-015 9.62649 2.4869e-014 7.10543e-015 29.859 -1.7467e-015 90 -0.109472 -5.24287 -6.72563 -72.8925 9.37258 -17.9831 1.1653 -12.7157 -16.7361 63.2697 -66.0695 144.843 16.2308 -5.97551 28.2387 151.394 17.1029 116.648 26.7017 -9.19239 -9.89204 21.4167 49.164 41.6231 4.44874 -7.74942 3.58114 29.859 -1.7467e-015 90 -0.323145 -1.55994 -9.59625 -62.7106 -9.24999 4.74057 13.2848 -5.74129 -7.13912 -16.364 10.3215 48.1923 14.815 16.9375 15.0957 1.74327 -1.77547 -54.0205 23.6904 -6.58016 -3.54465 -3.68798 -0.0503888 -51.1311 1.47758 -6.16068 -2.41079 -2.00005e-032 -7.95139e-016 -1.44119e-015 2.82533 14.5514 -5.77316e-015 28.4176 -2.52208e-015 -4.44781e-015 7.87756 1.42109e-014 -7.99361e-015 34.3386 -1.15544e-015 3.35449e-016 6.52588 1.42109e-014 8.88178e-016 2.792 -2.98177e-016 1.2424e-017 -9.30511 7.998 11.2048 -6.8505 -4.18474e-016 -90 0 0 0 7.11276e-016 -1.59028e-015 -2.60905e-016 -9.30514 7.99801 -11.2048 173.149 4.18474e-016 -90 0 0 0 1.3977e-016 -1.59028e-015 1.2424e-016 
